# xmcd CD database file
#
# Track frame offsets:
#	225
#	32526
#	69878
#	93747
#	112087
#	139229
#	165588
#	196441
#	228820
#	254091
#
# Disc length: 3713 seconds
#
# Revision: 0
# Processed by: cddbd v1.5.2PL0 Copyright (c) Steve Scherf et al.
# Submitted via: CDex 1.70beta2
#
DISCID=8a0e7e0a
DTITLE=Stigbrand dubé turborn - Drumless in time
DYEAR=2001
DGENRE=Jazz
TTITLE0=Emily
TTITLE1=Autumn Leaves
TTITLE2=should care
TTITLE3=Emigrantvisa
TTITLE4=Stella By Starlight
TTITLE5=My favourite things
TTITLE6=Alone together
TTITLE7=Chicken à la king
TTITLE8=Summertime
TTITLE9=Vem kan segla förutan vind
EXTD=YEAR: 2001
EXTT0=
EXTT1=
EXTT2=
EXTT3=
EXTT4=
EXTT5=
EXTT6=
EXTT7=
EXTT8=
EXTT9=
PLAYORDER=
